<svg xmlns="http://www.w3.org/2000/svg" width="1200" height="800" viewBox="0 0 1200 800" role="img" aria-label="About Watch Store">
  <defs>
    <linearGradient id="bg" x1="0" y1="0" x2="1" y2="1">
      <stop offset="0" stop-color="#E6F2F1"/>
      <stop offset="1" stop-color="#d5f2f2"/>
    </linearGradient>
    <linearGradient id="card" x1="0" y1="0" x2="1" y2="1">
      <stop offset="0" stop-color="#3AA1A0"/>
      <stop offset="1" stop-color="#25696a"/>
    </linearGradient>
  </defs>
  <rect width="1200" height="800" fill="url(#bg)"/>
  <g transform="translate(120 120)">
    <rect x="0" y="0" width="960" height="560" rx="28" fill="#ffffff" opacity="0.9"/>
    <rect x="36" y="36" width="420" height="488" rx="22" fill="url(#card)" opacity="0.95"/>
    <g transform="translate(520 90)">
      <rect x="0" y="0" width="380" height="80" rx="18" fill="#111827" opacity="0.08"/>
      <rect x="0" y="110" width="340" height="28" rx="14" fill="#111827" opacity="0.08"/>
      <rect x="0" y="160" width="360" height="28" rx="14" fill="#111827" opacity="0.08"/>
      <rect x="0" y="210" width="300" height="28" rx="14" fill="#111827" opacity="0.08"/>
      <rect x="0" y="280" width="220" height="56" rx="18" fill="#3AA1A0" opacity="0.25"/>
    </g>
    <g transform="translate(140 140)" opacity="0.85">
      <circle cx="106" cy="120" r="92" fill="#ffffff" opacity="0.18"/>
      <circle cx="106" cy="120" r="62" fill="#ffffff" opacity="0.22"/>
      <path d="M106 85v70l40 24" stroke="#ffffff" stroke-width="10" stroke-linecap="round" stroke-linejoin="round" fill="none"/>
    </g>
  </g>
</svg>
